{"title":"Porcupine Tree - 2007 - Fear Of A Blank Planet (FLAC+CUE)","uid":4275916,"size":331803598,"categoryP":"audio","categoryS":"flac","magnet":"?xt=urn:btih:9a32fd6ff6c8055c42564f6cde269ae05225ee8b&amp;dn=Porcupine+Tree+-+2007+-+Fear+Of+A+Blank+Planet+%28FLAC%2BCUE%29&amp;tr=udp%3A%2F%2Ftracker.openbittorrent.com%3A80&amp;tr=udp%3A%2F%2Fopen.demonii.com%3A1337&amp;tr=udp%3A%2F%2Ftracker.coppersurfer.tk%3A6969&amp;tr=udp%3A%2F%2Fexodus.desync.com%3A6969","seeders":4,"leechers":0,"uploader":"downup","files":4,"time":1215185066,"description":"REM GENRE Rock\n\nREM DATE 2007\n\nREM DISCID 4A0BEB06\n\nREM COMMENT &quot;ExactAudioCopy v0.99pb4&quot;\n\nPERFORMER &quot;Porcupine Tree&quot;\n\nTITLE &quot;Fear Of A Blank Planet&quot;\n\nFILE &quot;Porcupine Tree - 2007 - Fear Of A Blank Planet.flac&quot; WAVE\n\n  TRACK 01 AUDIO\n\n    TITLE &quot;Fear Of A Blank Planet&quot;\n\n    PERFORMER &quot;Porcupine Tree&quot;\n\n    INDEX 01 00:00:00\n\n  TRACK 02 AUDIO\n\n    TITLE &quot;My Ashes&quot;\n\n    PERFORMER &quot;Porcupine Tree&quot;\n\n    INDEX 01 07:28:16\n\n  TRACK 03 AUDIO\n\n    TITLE &quot;Anesthetize&quot;\n\n    PERFORMER &quot;Porcupine Tree&quot;\n\n    INDEX 01 12:35:28\n\n  TRACK 04 AUDIO\n\n    TITLE &quot;Sentimental&quot;\n\n    PERFORMER &quot;Porcupine Tree&quot;\n\n    INDEX 01 30:17:62\n\n  TRACK 05 AUDIO\n\n    TITLE &quot;Way Out Of Here&quot;\n\n    PERFORMER &quot;Porcupine Tree&quot;\n\n    INDEX 01 35:44:58\n\n  TRACK 06 AUDIO\n\n    TITLE &quot;Sleep Together&quot;\n\n    PERFORMER &quot;Porcupine Tree&quot;\n\n    INDEX 01 43:22:40\n\n\n------------------------------------------\n\nExact Audio Copy V0.99 prebeta 4 from 23. January 2008\n\n\n\nEAC extraction logfile from 16. March 2008, 19:42\n\n\n\nPorcupine Tree / Fear Of A Blank Planet\n\n\n\nUsed drive  : PLEXTOR DVDR   PX-750A   Adapter: 0  ID: 1\n\n\n\nRead mode               : Secure\n\nUtilize accurate stream : Yes\n\nDefeat audio cache      : No\n\nMake use of C2 pointers : Yes\n\n\n\nRead offset correction                      : 102\n\nOverread into Lead-In and Lead-Out          : No\n\nFill up missing offset samples with silence : Yes\n\nDelete leading and trailing silent blocks   : No\n\nNull samples used in CRC calculations       : No\n\nUsed interface                              : Native Win32 interface for Win NT &amp; 2000\n\n\n\nUsed output format : Internal WAV Routines\n\nSample format      : 44.100 Hz; 16 Bit; Stereo\n\n\n\n\n\nTOC of the extracted CD\n\n\n\n     Track |   Start  |  Length  | Start sector | End sector \n\n    ---------------------------------------------------------\n\n        1  |  0:00.00 |  7:28.16 |         0    |    33615   \n\n        2  |  7:28.16 |  5:07.12 |     33616    |    56652   \n\n        3  | 12:35.28 | 17:42.34 |     56653    |   136336   \n\n        4  | 30:17.62 |  5:26.71 |    136337    |   160857   \n\n        5  | 35:44.58 |  7:37.57 |    160858    |   195189   \n\n        6  | 43:22.40 |  7:28.44 |    195190    |   228833   \n\n\n\n\n\nRange status and errors\n\n\n\nSelected range\n\n\n\n     Filename H:\\RIP\\Porcupine Tree - 2007 - Fear Of A Blank Planet.wav\n\n\n\n     Peak level 100.0 %\n\n     Range quality 100.0 %\n\n     Copy CRC E499D368\n\n     Copy OK\n\n\n\nNo errors occurred\n\n\n\n \n\nAccurateRip summary\n\n \n\nTrack  1  accurately ripped (confidence 3)  [ACEBDCD7]\n\nTrack  2  accurately ripped (confidence 2)  [B74E3EC0]\n\nTrack  3  accurately ripped (confidence 2)  [DB4F4AD9]\n\nTrack  4  accurately ripped (confidence 2)  [D2C783E6]\n\nTrack  5  accurately ripped (confidence 2)  [D9E9D472]\n\nTrack  6  accurately ripped (confidence 2)  [D8452B03]\n\n \n\nAll tracks accurately ripped\n\n\n\nEnd of status report\n","torrent":{"xt":"urn:btih:9a32fd6ff6c8055c42564f6cde269ae05225ee8b","amp;dn":"Porcupine+Tree+-+2007+-+Fear+Of+A+Blank+Planet+%28FLAC%2BCUE%29","amp;tr":["udp%3A%2F%2Ftracker.openbittorrent.com%3A80","udp%3A%2F%2Fopen.demonii.com%3A1337","udp%3A%2F%2Ftracker.coppersurfer.tk%3A6969","udp%3A%2F%2Fexodus.desync.com%3A6969"],"infoHash":"9a32fd6ff6c8055c42564f6cde269ae05225ee8b","infoHashBuffer":{"type":"Buffer","data":[154,50,253,111,246,200,5,92,66,86,79,108,222,38,154,224,82,37,238,139]},"announce":[],"urlList":[]}}